solid ASCII
  facet normal -1.000000e+00 0.000000e+00 0.000000e+00
    outer loop
      vertex   -7.752799e+00 4.894340e+00 0.000000e+00
      vertex   -7.752799e+00 -6.745140e+00 0.000000e+00
      vertex   -7.752799e+00 4.894340e+00 1.000000e-03
    endloop
  endfacet
  facet normal -1.000000e+00 -0.000000e+00 0.000000e+00
    outer loop
      vertex   -7.752799e+00 4.894340e+00 1.000000e-03
      vertex   -7.752799e+00 -6.745140e+00 0.000000e+00
      vertex   -7.752799e+00 -6.745140e+00 1.000000e-03
    endloop
  endfacet
  facet normal 0.000000e+00 1.000000e+00 0.000000e+00
    outer loop
      vertex   9.644728e+00 4.894340e+00 0.000000e+00
      vertex   -7.752799e+00 4.894340e+00 0.000000e+00
      vertex   9.644728e+00 4.894340e+00 1.000000e-03
    endloop
  endfacet
  facet normal 0.000000e+00 1.000000e+00 0.000000e+00
    outer loop
      vertex   9.644728e+00 4.894340e+00 1.000000e-03
      vertex   -7.752799e+00 4.894340e+00 0.000000e+00
      vertex   -7.752799e+00 4.894340e+00 1.000000e-03
    endloop
  endfacet
  facet normal 1.000000e+00 -0.000000e+00 1.776357e-12
    outer loop
      vertex   9.644728e+00 -6.745140e+00 0.000000e+00
      vertex   9.644728e+00 4.894340e+00 0.000000e+00
      vertex   9.644728e+00 -6.745140e+00 1.000000e-03
    endloop
  endfacet
  facet normal 1.000000e+00 -0.000000e+00 1.776357e-12
    outer loop
      vertex   9.644728e+00 -6.745140e+00 1.000000e-03
      vertex   9.644728e+00 4.894340e+00 0.000000e+00
      vertex   9.644728e+00 4.894340e+00 1.000000e-03
    endloop
  endfacet
  facet normal 0.000000e+00 -1.000000e+00 0.000000e+00
    outer loop
      vertex   -7.752799e+00 -6.745140e+00 0.000000e+00
      vertex   9.644728e+00 -6.745140e+00 0.000000e+00
      vertex   -7.752799e+00 -6.745140e+00 1.000000e-03
    endloop
  endfacet
  facet normal 0.000000e+00 -1.000000e+00 0.000000e+00
    outer loop
      vertex   -7.752799e+00 -6.745140e+00 1.000000e-03
      vertex   9.644728e+00 -6.745140e+00 0.000000e+00
      vertex   9.644728e+00 -6.745140e+00 1.000000e-03
    endloop
  endfacet
  facet normal 0.000000e+00 0.000000e+00 1.000000e+00
    outer loop
      vertex   -7.752799e+00 -6.745140e+00 1.000000e-03
      vertex   9.644728e+00 -6.745140e+00 1.000000e-03
      vertex   -7.752799e+00 4.894340e+00 1.000000e-03
    endloop
  endfacet
  facet normal -0.000000e+00 0.000000e+00 1.000000e+00
    outer loop
      vertex   -7.752799e+00 4.894340e+00 1.000000e-03
      vertex   9.644728e+00 -6.745140e+00 1.000000e-03
      vertex   9.644728e+00 4.894340e+00 1.000000e-03
    endloop
  endfacet
  facet normal 0.000000e+00 0.000000e+00 -1.000000e+00
    outer loop
      vertex   9.644728e+00 -6.745140e+00 0.000000e+00
      vertex   -7.752799e+00 -6.745140e+00 0.000000e+00
      vertex   9.644728e+00 4.894340e+00 0.000000e+00
    endloop
  endfacet
  facet normal -0.000000e+00 0.000000e+00 -1.000000e+00
    outer loop
      vertex   9.644728e+00 4.894340e+00 0.000000e+00
      vertex   -7.752799e+00 -6.745140e+00 0.000000e+00
      vertex   -7.752799e+00 4.894340e+00 0.000000e+00
    endloop
  endfacet
endsolid
